<mxfile host="app.diagrams.net" modified="2024-01-30T04:09:08.116Z" agent="Mozilla/5.0 (Windows NT 10.0; Win64; x64) AppleWebKit/537.36 (KHTML, like Gecko) Chrome/121.0.0.0 Safari/537.36 Edg/121.0.0.0" etag="ShEIo-cEJqjYT61yhYhE" version="23.0.2" type="github" pages="2">
  <diagram name="ERD" id="IUGM_bh3EjzVQokUihNc">
    <mxGraphModel dx="1466" dy="1242" grid="1" gridSize="10" guides="1" tooltips="1" connect="1" arrows="1" fold="1" page="0" pageScale="1" pageWidth="827" pageHeight="1169" math="0" shadow="0">
      <root>
        <mxCell id="0" />
        <mxCell id="1" parent="0" />
        <mxCell id="mSW_ob6m5kvvUS12QBub-59" value="" style="endArrow=none;html=1;rounded=0;fontSize=12;startSize=8;endSize=8;curved=1;exitX=1;exitY=0.5;exitDx=0;exitDy=0;entryX=0;entryY=0.5;entryDx=0;entryDy=0;" parent="1" source="mSW_ob6m5kvvUS12QBub-2" target="mSW_ob6m5kvvUS12QBub-3" edge="1">
          <mxGeometry relative="1" as="geometry">
            <mxPoint x="-240" y="-10" as="sourcePoint" />
            <mxPoint x="-80" y="-10" as="targetPoint" />
          </mxGeometry>
        </mxCell>
        <mxCell id="mSW_ob6m5kvvUS12QBub-60" value="M" style="resizable=0;html=1;whiteSpace=wrap;align=left;verticalAlign=bottom;fontSize=16;" parent="mSW_ob6m5kvvUS12QBub-59" connectable="0" vertex="1">
          <mxGeometry x="-1" relative="1" as="geometry">
            <mxPoint x="2" as="offset" />
          </mxGeometry>
        </mxCell>
        <mxCell id="mSW_ob6m5kvvUS12QBub-61" value="N" style="resizable=0;html=1;whiteSpace=wrap;align=right;verticalAlign=bottom;fontSize=16;" parent="mSW_ob6m5kvvUS12QBub-59" connectable="0" vertex="1">
          <mxGeometry x="1" relative="1" as="geometry">
            <mxPoint x="-2" as="offset" />
          </mxGeometry>
        </mxCell>
        <mxCell id="mSW_ob6m5kvvUS12QBub-31" value="게시글" style="whiteSpace=wrap;html=1;align=center;fontSize=16;" parent="1" vertex="1">
          <mxGeometry x="-400" y="240" width="100" height="40" as="geometry" />
        </mxCell>
        <mxCell id="mSW_ob6m5kvvUS12QBub-36" value="글번호" style="ellipse;whiteSpace=wrap;html=1;align=center;fontStyle=4;fontSize=16;" parent="1" vertex="1">
          <mxGeometry x="-590" y="180" width="100" height="40" as="geometry" />
        </mxCell>
        <mxCell id="mSW_ob6m5kvvUS12QBub-37" value="글제목" style="ellipse;whiteSpace=wrap;html=1;align=center;fontSize=16;" parent="1" vertex="1">
          <mxGeometry x="-590" y="220" width="100" height="40" as="geometry" />
        </mxCell>
        <mxCell id="mSW_ob6m5kvvUS12QBub-38" value="글내용" style="ellipse;whiteSpace=wrap;html=1;align=center;fontSize=16;" parent="1" vertex="1">
          <mxGeometry x="-590" y="260" width="100" height="40" as="geometry" />
        </mxCell>
        <mxCell id="mSW_ob6m5kvvUS12QBub-39" value="작성일자" style="ellipse;whiteSpace=wrap;html=1;align=center;fontSize=16;" parent="1" vertex="1">
          <mxGeometry x="-590" y="300" width="100" height="40" as="geometry" />
        </mxCell>
        <mxCell id="mSW_ob6m5kvvUS12QBub-40" value="" style="endArrow=none;html=1;rounded=0;fontSize=12;startSize=8;endSize=8;curved=1;entryX=1;entryY=0.5;entryDx=0;entryDy=0;exitX=0;exitY=0.5;exitDx=0;exitDy=0;" parent="1" source="mSW_ob6m5kvvUS12QBub-31" target="mSW_ob6m5kvvUS12QBub-36" edge="1">
          <mxGeometry relative="1" as="geometry">
            <mxPoint x="-750" y="240" as="sourcePoint" />
            <mxPoint x="-680" y="180" as="targetPoint" />
          </mxGeometry>
        </mxCell>
        <mxCell id="mSW_ob6m5kvvUS12QBub-41" value="" style="endArrow=none;html=1;rounded=0;fontSize=12;startSize=8;endSize=8;curved=1;entryX=1;entryY=0.5;entryDx=0;entryDy=0;exitX=0;exitY=0.5;exitDx=0;exitDy=0;" parent="1" source="mSW_ob6m5kvvUS12QBub-31" target="mSW_ob6m5kvvUS12QBub-39" edge="1">
          <mxGeometry relative="1" as="geometry">
            <mxPoint x="-750" y="240" as="sourcePoint" />
            <mxPoint x="-680" y="300" as="targetPoint" />
          </mxGeometry>
        </mxCell>
        <mxCell id="mSW_ob6m5kvvUS12QBub-42" value="" style="endArrow=none;html=1;rounded=0;fontSize=12;startSize=8;endSize=8;curved=1;entryX=1;entryY=0.5;entryDx=0;entryDy=0;exitX=0;exitY=0.5;exitDx=0;exitDy=0;" parent="1" source="mSW_ob6m5kvvUS12QBub-31" target="mSW_ob6m5kvvUS12QBub-37" edge="1">
          <mxGeometry relative="1" as="geometry">
            <mxPoint x="-750" y="240" as="sourcePoint" />
            <mxPoint x="-680" y="220" as="targetPoint" />
          </mxGeometry>
        </mxCell>
        <mxCell id="mSW_ob6m5kvvUS12QBub-43" value="" style="endArrow=none;html=1;rounded=0;fontSize=12;startSize=8;endSize=8;curved=1;entryX=1;entryY=0.5;entryDx=0;entryDy=0;exitX=0;exitY=0.5;exitDx=0;exitDy=0;" parent="1" source="mSW_ob6m5kvvUS12QBub-31" target="mSW_ob6m5kvvUS12QBub-38" edge="1">
          <mxGeometry relative="1" as="geometry">
            <mxPoint x="-750" y="240" as="sourcePoint" />
            <mxPoint x="-680" y="260" as="targetPoint" />
          </mxGeometry>
        </mxCell>
        <mxCell id="mSW_ob6m5kvvUS12QBub-30" value="제조업체" style="whiteSpace=wrap;html=1;align=center;fontSize=16;" parent="1" vertex="1">
          <mxGeometry x="20" y="250" width="100" height="40" as="geometry" />
        </mxCell>
        <mxCell id="mSW_ob6m5kvvUS12QBub-32" value="업체코드" style="ellipse;whiteSpace=wrap;html=1;align=center;fontStyle=4;fontSize=16;" parent="1" vertex="1">
          <mxGeometry x="220" y="170" width="100" height="40" as="geometry" />
        </mxCell>
        <mxCell id="mSW_ob6m5kvvUS12QBub-33" value="전화번호" style="ellipse;whiteSpace=wrap;html=1;align=center;fontSize=16;" parent="1" vertex="1">
          <mxGeometry x="220" y="250" width="100" height="40" as="geometry" />
        </mxCell>
        <mxCell id="mSW_ob6m5kvvUS12QBub-34" value="위치" style="ellipse;whiteSpace=wrap;html=1;align=center;fontSize=16;" parent="1" vertex="1">
          <mxGeometry x="220" y="290" width="100" height="40" as="geometry" />
        </mxCell>
        <mxCell id="mSW_ob6m5kvvUS12QBub-35" value="담당자" style="ellipse;whiteSpace=wrap;html=1;align=center;fontSize=16;" parent="1" vertex="1">
          <mxGeometry x="220" y="330" width="100" height="40" as="geometry" />
        </mxCell>
        <mxCell id="mSW_ob6m5kvvUS12QBub-46" value="" style="endArrow=none;html=1;rounded=0;fontSize=12;startSize=8;endSize=8;curved=1;exitX=0;exitY=0.5;exitDx=0;exitDy=0;entryX=1;entryY=0.5;entryDx=0;entryDy=0;" parent="1" source="mSW_ob6m5kvvUS12QBub-32" target="mSW_ob6m5kvvUS12QBub-30" edge="1">
          <mxGeometry relative="1" as="geometry">
            <mxPoint x="390" y="220" as="sourcePoint" />
            <mxPoint x="120" y="270" as="targetPoint" />
          </mxGeometry>
        </mxCell>
        <mxCell id="mSW_ob6m5kvvUS12QBub-47" value="" style="endArrow=none;html=1;rounded=0;fontSize=12;startSize=8;endSize=8;curved=1;exitX=0;exitY=0.5;exitDx=0;exitDy=0;entryX=1;entryY=0.5;entryDx=0;entryDy=0;" parent="1" source="mSW_ob6m5kvvUS12QBub-33" target="mSW_ob6m5kvvUS12QBub-30" edge="1">
          <mxGeometry relative="1" as="geometry">
            <mxPoint x="290" y="280" as="sourcePoint" />
            <mxPoint x="120" y="270" as="targetPoint" />
          </mxGeometry>
        </mxCell>
        <mxCell id="mSW_ob6m5kvvUS12QBub-48" value="" style="endArrow=none;html=1;rounded=0;fontSize=12;startSize=8;endSize=8;curved=1;exitX=0;exitY=0.5;exitDx=0;exitDy=0;entryX=1;entryY=0.5;entryDx=0;entryDy=0;" parent="1" source="mSW_ob6m5kvvUS12QBub-34" target="mSW_ob6m5kvvUS12QBub-30" edge="1">
          <mxGeometry relative="1" as="geometry">
            <mxPoint x="390" y="340" as="sourcePoint" />
            <mxPoint x="120" y="270" as="targetPoint" />
          </mxGeometry>
        </mxCell>
        <mxCell id="mSW_ob6m5kvvUS12QBub-49" value="" style="endArrow=none;html=1;rounded=0;fontSize=12;startSize=8;endSize=8;curved=1;exitX=0;exitY=0.5;exitDx=0;exitDy=0;entryX=1;entryY=0.5;entryDx=0;entryDy=0;" parent="1" source="mSW_ob6m5kvvUS12QBub-35" target="mSW_ob6m5kvvUS12QBub-30" edge="1">
          <mxGeometry relative="1" as="geometry">
            <mxPoint x="390" y="380" as="sourcePoint" />
            <mxPoint x="480" y="300" as="targetPoint" />
          </mxGeometry>
        </mxCell>
        <mxCell id="mSW_ob6m5kvvUS12QBub-51" value="제조업체명" style="ellipse;whiteSpace=wrap;html=1;align=center;fontSize=16;" parent="1" vertex="1">
          <mxGeometry x="220" y="210" width="100" height="40" as="geometry" />
        </mxCell>
        <mxCell id="mSW_ob6m5kvvUS12QBub-52" value="" style="endArrow=none;html=1;rounded=0;fontSize=12;startSize=8;endSize=8;curved=1;exitX=0;exitY=0.5;exitDx=0;exitDy=0;entryX=1;entryY=0.5;entryDx=0;entryDy=0;" parent="1" source="mSW_ob6m5kvvUS12QBub-51" target="mSW_ob6m5kvvUS12QBub-30" edge="1">
          <mxGeometry relative="1" as="geometry">
            <mxPoint x="390" y="240" as="sourcePoint" />
            <mxPoint x="480" y="300" as="targetPoint" />
          </mxGeometry>
        </mxCell>
        <mxCell id="mSW_ob6m5kvvUS12QBub-2" value="회원" style="whiteSpace=wrap;html=1;align=center;fontSize=16;" parent="1" vertex="1">
          <mxGeometry x="-400" y="-120" width="100" height="40" as="geometry" />
        </mxCell>
        <mxCell id="mSW_ob6m5kvvUS12QBub-4" value="아이디" style="ellipse;whiteSpace=wrap;html=1;align=center;fontStyle=4;fontSize=16;" parent="1" vertex="1">
          <mxGeometry x="-590" y="-240" width="100" height="40" as="geometry" />
        </mxCell>
        <mxCell id="mSW_ob6m5kvvUS12QBub-5" value="비밀번호" style="ellipse;whiteSpace=wrap;html=1;align=center;fontSize=16;" parent="1" vertex="1">
          <mxGeometry x="-590" y="-200" width="100" height="40" as="geometry" />
        </mxCell>
        <mxCell id="mSW_ob6m5kvvUS12QBub-6" value="이름" style="ellipse;whiteSpace=wrap;html=1;align=center;fontSize=16;" parent="1" vertex="1">
          <mxGeometry x="-590" y="-160" width="100" height="40" as="geometry" />
        </mxCell>
        <mxCell id="mSW_ob6m5kvvUS12QBub-7" value="나이" style="ellipse;whiteSpace=wrap;html=1;align=center;fontSize=16;" parent="1" vertex="1">
          <mxGeometry x="-590" y="-120" width="100" height="40" as="geometry" />
        </mxCell>
        <mxCell id="mSW_ob6m5kvvUS12QBub-8" value="직업" style="ellipse;whiteSpace=wrap;html=1;align=center;fontSize=16;" parent="1" vertex="1">
          <mxGeometry x="-590" y="-80" width="100" height="40" as="geometry" />
        </mxCell>
        <mxCell id="mSW_ob6m5kvvUS12QBub-9" value="등급" style="ellipse;whiteSpace=wrap;html=1;align=center;fontSize=16;" parent="1" vertex="1">
          <mxGeometry x="-590" y="-40" width="100" height="40" as="geometry" />
        </mxCell>
        <mxCell id="mSW_ob6m5kvvUS12QBub-10" value="적립금" style="ellipse;whiteSpace=wrap;html=1;align=center;fontSize=16;" parent="1" vertex="1">
          <mxGeometry x="-590" width="100" height="40" as="geometry" />
        </mxCell>
        <mxCell id="mSW_ob6m5kvvUS12QBub-23" value="" style="endArrow=none;html=1;rounded=0;fontSize=12;startSize=8;endSize=8;curved=1;entryX=0;entryY=0.5;entryDx=0;entryDy=0;exitX=1;exitY=0.5;exitDx=0;exitDy=0;" parent="1" source="mSW_ob6m5kvvUS12QBub-7" target="mSW_ob6m5kvvUS12QBub-2" edge="1">
          <mxGeometry relative="1" as="geometry">
            <mxPoint x="-470" y="-80" as="sourcePoint" />
            <mxPoint x="-400" y="-100" as="targetPoint" />
          </mxGeometry>
        </mxCell>
        <mxCell id="mSW_ob6m5kvvUS12QBub-24" value="" style="endArrow=none;html=1;rounded=0;fontSize=12;startSize=8;endSize=8;curved=1;entryX=0;entryY=0.5;entryDx=0;entryDy=0;exitX=1;exitY=0.5;exitDx=0;exitDy=0;" parent="1" target="mSW_ob6m5kvvUS12QBub-2" edge="1">
          <mxGeometry relative="1" as="geometry">
            <mxPoint x="-490" y="-220" as="sourcePoint" />
            <mxPoint x="-420" y="-240" as="targetPoint" />
          </mxGeometry>
        </mxCell>
        <mxCell id="mSW_ob6m5kvvUS12QBub-25" value="" style="endArrow=none;html=1;rounded=0;fontSize=12;startSize=8;endSize=8;curved=1;exitX=1;exitY=0.5;exitDx=0;exitDy=0;entryX=0;entryY=0.5;entryDx=0;entryDy=0;" parent="1" source="mSW_ob6m5kvvUS12QBub-5" target="mSW_ob6m5kvvUS12QBub-2" edge="1">
          <mxGeometry relative="1" as="geometry">
            <mxPoint x="-480" y="-210" as="sourcePoint" />
            <mxPoint x="-400" y="-100" as="targetPoint" />
          </mxGeometry>
        </mxCell>
        <mxCell id="mSW_ob6m5kvvUS12QBub-26" value="" style="endArrow=none;html=1;rounded=0;fontSize=12;startSize=8;endSize=8;curved=1;entryX=0;entryY=0.5;entryDx=0;entryDy=0;exitX=1;exitY=0.5;exitDx=0;exitDy=0;" parent="1" source="mSW_ob6m5kvvUS12QBub-6" target="mSW_ob6m5kvvUS12QBub-2" edge="1">
          <mxGeometry relative="1" as="geometry">
            <mxPoint x="-470" y="-200" as="sourcePoint" />
            <mxPoint x="-380" y="-80" as="targetPoint" />
          </mxGeometry>
        </mxCell>
        <mxCell id="mSW_ob6m5kvvUS12QBub-27" value="" style="endArrow=none;html=1;rounded=0;fontSize=12;startSize=8;endSize=8;curved=1;entryX=0;entryY=0.5;entryDx=0;entryDy=0;exitX=1;exitY=0.5;exitDx=0;exitDy=0;" parent="1" source="mSW_ob6m5kvvUS12QBub-8" target="mSW_ob6m5kvvUS12QBub-2" edge="1">
          <mxGeometry relative="1" as="geometry">
            <mxPoint x="-460" y="-190" as="sourcePoint" />
            <mxPoint x="-370" y="-70" as="targetPoint" />
          </mxGeometry>
        </mxCell>
        <mxCell id="mSW_ob6m5kvvUS12QBub-28" value="" style="endArrow=none;html=1;rounded=0;fontSize=12;startSize=8;endSize=8;curved=1;exitX=1;exitY=0.5;exitDx=0;exitDy=0;entryX=0;entryY=0.5;entryDx=0;entryDy=0;" parent="1" source="mSW_ob6m5kvvUS12QBub-9" target="mSW_ob6m5kvvUS12QBub-2" edge="1">
          <mxGeometry relative="1" as="geometry">
            <mxPoint x="-450" y="-180" as="sourcePoint" />
            <mxPoint x="-400" y="-100" as="targetPoint" />
          </mxGeometry>
        </mxCell>
        <mxCell id="mSW_ob6m5kvvUS12QBub-29" value="" style="endArrow=none;html=1;rounded=0;fontSize=12;startSize=8;endSize=8;curved=1;entryX=0;entryY=0.5;entryDx=0;entryDy=0;exitX=1;exitY=0.5;exitDx=0;exitDy=0;" parent="1" source="mSW_ob6m5kvvUS12QBub-10" target="mSW_ob6m5kvvUS12QBub-2" edge="1">
          <mxGeometry relative="1" as="geometry">
            <mxPoint x="-440" y="-170" as="sourcePoint" />
            <mxPoint x="-350" y="-50" as="targetPoint" />
          </mxGeometry>
        </mxCell>
        <mxCell id="mSW_ob6m5kvvUS12QBub-3" value="상품" style="whiteSpace=wrap;html=1;align=center;fontSize=16;" parent="1" vertex="1">
          <mxGeometry x="20" y="-120" width="100" height="40" as="geometry" />
        </mxCell>
        <mxCell id="mSW_ob6m5kvvUS12QBub-11" value="상품전호" style="ellipse;whiteSpace=wrap;html=1;align=center;fontStyle=4;fontSize=16;" parent="1" vertex="1">
          <mxGeometry x="220" y="-180" width="100" height="40" as="geometry" />
        </mxCell>
        <mxCell id="mSW_ob6m5kvvUS12QBub-12" value="상품명" style="ellipse;whiteSpace=wrap;html=1;align=center;fontSize=16;" parent="1" vertex="1">
          <mxGeometry x="220" y="-140" width="100" height="40" as="geometry" />
        </mxCell>
        <mxCell id="mSW_ob6m5kvvUS12QBub-13" value="재고량" style="ellipse;whiteSpace=wrap;html=1;align=center;fontSize=16;" parent="1" vertex="1">
          <mxGeometry x="220" y="-100" width="100" height="40" as="geometry" />
        </mxCell>
        <mxCell id="mSW_ob6m5kvvUS12QBub-14" value="단가" style="ellipse;whiteSpace=wrap;html=1;align=center;fontSize=16;" parent="1" vertex="1">
          <mxGeometry x="220" y="-60" width="100" height="40" as="geometry" />
        </mxCell>
        <mxCell id="mSW_ob6m5kvvUS12QBub-16" value="" style="endArrow=none;html=1;rounded=0;fontSize=12;startSize=8;endSize=8;curved=1;entryX=0;entryY=0.5;entryDx=0;entryDy=0;exitX=1;exitY=0.5;exitDx=0;exitDy=0;" parent="1" source="mSW_ob6m5kvvUS12QBub-3" target="mSW_ob6m5kvvUS12QBub-11" edge="1">
          <mxGeometry relative="1" as="geometry">
            <mxPoint x="120" y="-100" as="sourcePoint" />
            <mxPoint x="30" y="-60" as="targetPoint" />
          </mxGeometry>
        </mxCell>
        <mxCell id="mSW_ob6m5kvvUS12QBub-17" value="" style="endArrow=none;html=1;rounded=0;fontSize=12;startSize=8;endSize=8;curved=1;entryX=0;entryY=0.5;entryDx=0;entryDy=0;exitX=1;exitY=0.5;exitDx=0;exitDy=0;" parent="1" source="mSW_ob6m5kvvUS12QBub-3" target="mSW_ob6m5kvvUS12QBub-14" edge="1">
          <mxGeometry relative="1" as="geometry">
            <mxPoint x="120" y="-80" as="sourcePoint" />
            <mxPoint x="190" y="-130" as="targetPoint" />
          </mxGeometry>
        </mxCell>
        <mxCell id="mSW_ob6m5kvvUS12QBub-19" value="" style="endArrow=none;html=1;rounded=0;fontSize=12;startSize=8;endSize=8;curved=1;entryX=0;entryY=0.5;entryDx=0;entryDy=0;exitX=1;exitY=0.5;exitDx=0;exitDy=0;" parent="1" source="mSW_ob6m5kvvUS12QBub-3" target="mSW_ob6m5kvvUS12QBub-12" edge="1">
          <mxGeometry relative="1" as="geometry">
            <mxPoint x="130" y="-90" as="sourcePoint" />
            <mxPoint x="200" y="-150" as="targetPoint" />
          </mxGeometry>
        </mxCell>
        <mxCell id="mSW_ob6m5kvvUS12QBub-22" value="" style="endArrow=none;html=1;rounded=0;fontSize=12;startSize=8;endSize=8;curved=1;entryX=0;entryY=0.5;entryDx=0;entryDy=0;exitX=1;exitY=0.5;exitDx=0;exitDy=0;" parent="1" source="mSW_ob6m5kvvUS12QBub-3" target="mSW_ob6m5kvvUS12QBub-13" edge="1">
          <mxGeometry relative="1" as="geometry">
            <mxPoint x="130" y="-90" as="sourcePoint" />
            <mxPoint x="200" y="-110" as="targetPoint" />
          </mxGeometry>
        </mxCell>
        <mxCell id="mSW_ob6m5kvvUS12QBub-58" value="주문" style="shape=rhombus;perimeter=rhombusPerimeter;whiteSpace=wrap;html=1;align=center;fontSize=16;" parent="1" vertex="1">
          <mxGeometry x="-200" y="-130" width="120" height="60" as="geometry" />
        </mxCell>
        <mxCell id="mSW_ob6m5kvvUS12QBub-64" value="공급" style="shape=rhombus;perimeter=rhombusPerimeter;whiteSpace=wrap;html=1;align=center;fontSize=16;" parent="1" vertex="1">
          <mxGeometry x="10" y="50" width="120" height="60" as="geometry" />
        </mxCell>
        <mxCell id="mSW_ob6m5kvvUS12QBub-66" value="" style="endArrow=none;html=1;rounded=0;fontSize=12;startSize=8;endSize=8;curved=1;entryX=0.5;entryY=0;entryDx=0;entryDy=0;exitX=0.5;exitY=1;exitDx=0;exitDy=0;" parent="1" source="mSW_ob6m5kvvUS12QBub-64" target="mSW_ob6m5kvvUS12QBub-30" edge="1">
          <mxGeometry relative="1" as="geometry">
            <mxPoint x="-190" y="170" as="sourcePoint" />
            <mxPoint x="-30" y="170" as="targetPoint" />
          </mxGeometry>
        </mxCell>
        <mxCell id="mSW_ob6m5kvvUS12QBub-67" value="1" style="resizable=0;html=1;whiteSpace=wrap;align=right;verticalAlign=bottom;fontSize=16;" parent="mSW_ob6m5kvvUS12QBub-66" connectable="0" vertex="1">
          <mxGeometry x="1" relative="1" as="geometry">
            <mxPoint x="-2" y="-1" as="offset" />
          </mxGeometry>
        </mxCell>
        <mxCell id="mSW_ob6m5kvvUS12QBub-68" value="" style="endArrow=none;html=1;rounded=0;fontSize=12;startSize=8;endSize=8;curved=1;entryX=0.5;entryY=1;entryDx=0;entryDy=0;exitX=0.5;exitY=0;exitDx=0;exitDy=0;" parent="1" source="mSW_ob6m5kvvUS12QBub-64" target="mSW_ob6m5kvvUS12QBub-3" edge="1">
          <mxGeometry relative="1" as="geometry">
            <mxPoint x="-190" y="170" as="sourcePoint" />
            <mxPoint x="-30" y="170" as="targetPoint" />
          </mxGeometry>
        </mxCell>
        <mxCell id="mSW_ob6m5kvvUS12QBub-69" value="N" style="resizable=0;html=1;whiteSpace=wrap;align=right;verticalAlign=bottom;fontSize=16;" parent="mSW_ob6m5kvvUS12QBub-68" connectable="0" vertex="1">
          <mxGeometry x="1" relative="1" as="geometry">
            <mxPoint x="-2" y="22" as="offset" />
          </mxGeometry>
        </mxCell>
        <mxCell id="mSW_ob6m5kvvUS12QBub-70" value="공급량" style="ellipse;whiteSpace=wrap;html=1;align=center;fontSize=16;" parent="1" vertex="1">
          <mxGeometry x="220" y="30" width="100" height="40" as="geometry" />
        </mxCell>
        <mxCell id="mSW_ob6m5kvvUS12QBub-71" value="공급일자" style="ellipse;whiteSpace=wrap;html=1;align=center;fontSize=16;" parent="1" vertex="1">
          <mxGeometry x="220" y="90" width="100" height="40" as="geometry" />
        </mxCell>
        <mxCell id="mSW_ob6m5kvvUS12QBub-72" value="" style="endArrow=none;html=1;rounded=0;fontSize=12;startSize=8;endSize=8;curved=1;entryX=0;entryY=0.5;entryDx=0;entryDy=0;exitX=1;exitY=0;exitDx=0;exitDy=0;" parent="1" source="mSW_ob6m5kvvUS12QBub-64" target="mSW_ob6m5kvvUS12QBub-70" edge="1">
          <mxGeometry relative="1" as="geometry">
            <mxPoint x="130" y="-80" as="sourcePoint" />
            <mxPoint x="200" y="-60" as="targetPoint" />
          </mxGeometry>
        </mxCell>
        <mxCell id="mSW_ob6m5kvvUS12QBub-73" value="" style="endArrow=none;html=1;rounded=0;fontSize=12;startSize=8;endSize=8;curved=1;entryX=0;entryY=0.5;entryDx=0;entryDy=0;exitX=1;exitY=1;exitDx=0;exitDy=0;" parent="1" source="mSW_ob6m5kvvUS12QBub-64" target="mSW_ob6m5kvvUS12QBub-71" edge="1">
          <mxGeometry relative="1" as="geometry">
            <mxPoint x="140" y="90" as="sourcePoint" />
            <mxPoint x="220" y="70" as="targetPoint" />
          </mxGeometry>
        </mxCell>
        <mxCell id="mSW_ob6m5kvvUS12QBub-75" value="주문번호" style="ellipse;whiteSpace=wrap;html=1;align=center;fontSize=16;" parent="1" vertex="1">
          <mxGeometry x="-295" y="-220" width="100" height="40" as="geometry" />
        </mxCell>
        <mxCell id="mSW_ob6m5kvvUS12QBub-76" value="배송지" style="ellipse;whiteSpace=wrap;html=1;align=center;fontSize=16;" parent="1" vertex="1">
          <mxGeometry x="-245" y="-270" width="100" height="40" as="geometry" />
        </mxCell>
        <mxCell id="mSW_ob6m5kvvUS12QBub-77" value="주문수량" style="ellipse;whiteSpace=wrap;html=1;align=center;fontSize=16;" parent="1" vertex="1">
          <mxGeometry x="-85" y="-220" width="100" height="40" as="geometry" />
        </mxCell>
        <mxCell id="mSW_ob6m5kvvUS12QBub-78" value="주문일자" style="ellipse;whiteSpace=wrap;html=1;align=center;fontSize=16;" parent="1" vertex="1">
          <mxGeometry x="-135" y="-270" width="100" height="40" as="geometry" />
        </mxCell>
        <mxCell id="mSW_ob6m5kvvUS12QBub-79" value="" style="endArrow=none;html=1;rounded=0;fontSize=12;startSize=8;endSize=8;curved=1;entryX=0;entryY=0;entryDx=0;entryDy=0;exitX=0.5;exitY=1;exitDx=0;exitDy=0;" parent="1" source="mSW_ob6m5kvvUS12QBub-75" target="mSW_ob6m5kvvUS12QBub-58" edge="1">
          <mxGeometry relative="1" as="geometry">
            <mxPoint x="-480" y="-210" as="sourcePoint" />
            <mxPoint x="-390" y="-90" as="targetPoint" />
          </mxGeometry>
        </mxCell>
        <mxCell id="mSW_ob6m5kvvUS12QBub-80" value="" style="endArrow=none;html=1;rounded=0;fontSize=12;startSize=8;endSize=8;curved=1;entryX=0.368;entryY=0.093;entryDx=0;entryDy=0;exitX=0.5;exitY=1;exitDx=0;exitDy=0;entryPerimeter=0;" parent="1" source="mSW_ob6m5kvvUS12QBub-76" target="mSW_ob6m5kvvUS12QBub-58" edge="1">
          <mxGeometry relative="1" as="geometry">
            <mxPoint x="-235" y="-170" as="sourcePoint" />
            <mxPoint x="-160" y="-105" as="targetPoint" />
          </mxGeometry>
        </mxCell>
        <mxCell id="mSW_ob6m5kvvUS12QBub-81" value="" style="endArrow=none;html=1;rounded=0;fontSize=12;startSize=8;endSize=8;curved=1;entryX=0.63;entryY=0.093;entryDx=0;entryDy=0;exitX=0.5;exitY=1;exitDx=0;exitDy=0;entryPerimeter=0;" parent="1" source="mSW_ob6m5kvvUS12QBub-78" target="mSW_ob6m5kvvUS12QBub-58" edge="1">
          <mxGeometry relative="1" as="geometry">
            <mxPoint x="-185" y="-220" as="sourcePoint" />
            <mxPoint x="-147" y="-116" as="targetPoint" />
          </mxGeometry>
        </mxCell>
        <mxCell id="mSW_ob6m5kvvUS12QBub-82" value="" style="endArrow=none;html=1;rounded=0;fontSize=12;startSize=8;endSize=8;curved=1;entryX=1;entryY=0;entryDx=0;entryDy=0;exitX=0.5;exitY=1;exitDx=0;exitDy=0;" parent="1" source="mSW_ob6m5kvvUS12QBub-77" target="mSW_ob6m5kvvUS12QBub-58" edge="1">
          <mxGeometry relative="1" as="geometry">
            <mxPoint x="-175" y="-210" as="sourcePoint" />
            <mxPoint x="-137" y="-106" as="targetPoint" />
          </mxGeometry>
        </mxCell>
        <mxCell id="mSW_ob6m5kvvUS12QBub-83" value="작성" style="shape=rhombus;perimeter=rhombusPerimeter;whiteSpace=wrap;html=1;align=center;fontSize=16;" parent="1" vertex="1">
          <mxGeometry x="-410" y="50" width="120" height="60" as="geometry" />
        </mxCell>
        <mxCell id="mSW_ob6m5kvvUS12QBub-84" value="" style="endArrow=none;html=1;rounded=0;fontSize=12;startSize=8;endSize=8;curved=1;entryX=0.5;entryY=1;entryDx=0;entryDy=0;exitX=0.5;exitY=0;exitDx=0;exitDy=0;" parent="1" source="mSW_ob6m5kvvUS12QBub-83" target="mSW_ob6m5kvvUS12QBub-2" edge="1">
          <mxGeometry relative="1" as="geometry">
            <mxPoint x="-290" y="210" as="sourcePoint" />
            <mxPoint x="-130" y="210" as="targetPoint" />
          </mxGeometry>
        </mxCell>
        <mxCell id="mSW_ob6m5kvvUS12QBub-85" value="1" style="resizable=0;html=1;whiteSpace=wrap;align=right;verticalAlign=bottom;fontSize=16;" parent="mSW_ob6m5kvvUS12QBub-84" connectable="0" vertex="1">
          <mxGeometry x="1" relative="1" as="geometry">
            <mxPoint x="-2" y="20" as="offset" />
          </mxGeometry>
        </mxCell>
        <mxCell id="mSW_ob6m5kvvUS12QBub-86" value="" style="endArrow=none;html=1;rounded=0;fontSize=12;startSize=8;endSize=8;curved=1;exitX=0.5;exitY=1;exitDx=0;exitDy=0;entryX=0.5;entryY=0;entryDx=0;entryDy=0;" parent="1" source="mSW_ob6m5kvvUS12QBub-83" target="mSW_ob6m5kvvUS12QBub-31" edge="1">
          <mxGeometry relative="1" as="geometry">
            <mxPoint x="-290" y="210" as="sourcePoint" />
            <mxPoint x="-130" y="210" as="targetPoint" />
          </mxGeometry>
        </mxCell>
        <mxCell id="mSW_ob6m5kvvUS12QBub-87" value="N" style="resizable=0;html=1;whiteSpace=wrap;align=right;verticalAlign=bottom;fontSize=16;" parent="mSW_ob6m5kvvUS12QBub-86" connectable="0" vertex="1">
          <mxGeometry x="1" relative="1" as="geometry">
            <mxPoint x="-2" y="-1" as="offset" />
          </mxGeometry>
        </mxCell>
      </root>
    </mxGraphModel>
  </diagram>
  <diagram id="DculIePK-WLkBr0NyP4-" name="릴레이션">
    <mxGraphModel dx="1066" dy="1242" grid="1" gridSize="10" guides="1" tooltips="1" connect="1" arrows="1" fold="1" page="0" pageScale="1" pageWidth="827" pageHeight="1169" math="0" shadow="0">
      <root>
        <mxCell id="0" />
        <mxCell id="1" parent="0" />
        <mxCell id="tsxcBONfimj9_CM8lJqI-14" value="회원" style="shape=table;startSize=30;container=1;collapsible=1;childLayout=tableLayout;fixedRows=1;rowLines=0;fontStyle=1;align=center;resizeLast=1;html=1;whiteSpace=wrap;fontSize=16;" parent="1" vertex="1">
          <mxGeometry x="-80" y="-160" width="180" height="240" as="geometry" />
        </mxCell>
        <mxCell id="tsxcBONfimj9_CM8lJqI-15" value="" style="shape=tableRow;horizontal=0;startSize=0;swimlaneHead=0;swimlaneBody=0;fillColor=none;collapsible=0;dropTarget=0;points=[[0,0.5],[1,0.5]];portConstraint=eastwest;top=0;left=0;right=0;bottom=0;html=1;fontSize=16;" parent="tsxcBONfimj9_CM8lJqI-14" vertex="1">
          <mxGeometry y="30" width="180" height="30" as="geometry" />
        </mxCell>
        <mxCell id="tsxcBONfimj9_CM8lJqI-16" value="PK" style="shape=partialRectangle;connectable=0;fillColor=none;top=0;left=0;bottom=0;right=0;fontStyle=1;overflow=hidden;html=1;whiteSpace=wrap;fontSize=16;" parent="tsxcBONfimj9_CM8lJqI-15" vertex="1">
          <mxGeometry width="60" height="30" as="geometry">
            <mxRectangle width="60" height="30" as="alternateBounds" />
          </mxGeometry>
        </mxCell>
        <mxCell id="tsxcBONfimj9_CM8lJqI-17" value="회원아이디" style="shape=partialRectangle;connectable=0;fillColor=none;top=0;left=0;bottom=0;right=0;align=left;spacingLeft=6;fontStyle=5;overflow=hidden;html=1;whiteSpace=wrap;fontSize=16;" parent="tsxcBONfimj9_CM8lJqI-15" vertex="1">
          <mxGeometry x="60" width="120" height="30" as="geometry">
            <mxRectangle width="120" height="30" as="alternateBounds" />
          </mxGeometry>
        </mxCell>
        <mxCell id="tsxcBONfimj9_CM8lJqI-21" value="" style="shape=tableRow;horizontal=0;startSize=0;swimlaneHead=0;swimlaneBody=0;fillColor=none;collapsible=0;dropTarget=0;points=[[0,0.5],[1,0.5]];portConstraint=eastwest;top=0;left=0;right=0;bottom=0;html=1;fontSize=16;" parent="tsxcBONfimj9_CM8lJqI-14" vertex="1">
          <mxGeometry y="60" width="180" height="30" as="geometry" />
        </mxCell>
        <mxCell id="tsxcBONfimj9_CM8lJqI-22" value="" style="shape=partialRectangle;connectable=0;fillColor=none;top=0;left=0;bottom=0;right=0;editable=1;overflow=hidden;html=1;whiteSpace=wrap;fontSize=16;" parent="tsxcBONfimj9_CM8lJqI-21" vertex="1">
          <mxGeometry width="60" height="30" as="geometry">
            <mxRectangle width="60" height="30" as="alternateBounds" />
          </mxGeometry>
        </mxCell>
        <mxCell id="tsxcBONfimj9_CM8lJqI-23" value="비밀번호" style="shape=partialRectangle;connectable=0;fillColor=none;top=0;left=0;bottom=0;right=0;align=left;spacingLeft=6;overflow=hidden;html=1;whiteSpace=wrap;fontSize=16;" parent="tsxcBONfimj9_CM8lJqI-21" vertex="1">
          <mxGeometry x="60" width="120" height="30" as="geometry">
            <mxRectangle width="120" height="30" as="alternateBounds" />
          </mxGeometry>
        </mxCell>
        <mxCell id="tsxcBONfimj9_CM8lJqI-24" value="" style="shape=tableRow;horizontal=0;startSize=0;swimlaneHead=0;swimlaneBody=0;fillColor=none;collapsible=0;dropTarget=0;points=[[0,0.5],[1,0.5]];portConstraint=eastwest;top=0;left=0;right=0;bottom=0;html=1;fontSize=16;" parent="tsxcBONfimj9_CM8lJqI-14" vertex="1">
          <mxGeometry y="90" width="180" height="30" as="geometry" />
        </mxCell>
        <mxCell id="tsxcBONfimj9_CM8lJqI-25" value="" style="shape=partialRectangle;connectable=0;fillColor=none;top=0;left=0;bottom=0;right=0;editable=1;overflow=hidden;html=1;whiteSpace=wrap;fontSize=16;" parent="tsxcBONfimj9_CM8lJqI-24" vertex="1">
          <mxGeometry width="60" height="30" as="geometry">
            <mxRectangle width="60" height="30" as="alternateBounds" />
          </mxGeometry>
        </mxCell>
        <mxCell id="tsxcBONfimj9_CM8lJqI-26" value="이름" style="shape=partialRectangle;connectable=0;fillColor=none;top=0;left=0;bottom=0;right=0;align=left;spacingLeft=6;overflow=hidden;html=1;whiteSpace=wrap;fontSize=16;" parent="tsxcBONfimj9_CM8lJqI-24" vertex="1">
          <mxGeometry x="60" width="120" height="30" as="geometry">
            <mxRectangle width="120" height="30" as="alternateBounds" />
          </mxGeometry>
        </mxCell>
        <mxCell id="tsxcBONfimj9_CM8lJqI-27" value="" style="shape=tableRow;horizontal=0;startSize=0;swimlaneHead=0;swimlaneBody=0;fillColor=none;collapsible=0;dropTarget=0;points=[[0,0.5],[1,0.5]];portConstraint=eastwest;top=0;left=0;right=0;bottom=0;html=1;fontSize=16;" parent="tsxcBONfimj9_CM8lJqI-14" vertex="1">
          <mxGeometry y="120" width="180" height="30" as="geometry" />
        </mxCell>
        <mxCell id="tsxcBONfimj9_CM8lJqI-28" value="" style="shape=partialRectangle;connectable=0;fillColor=none;top=0;left=0;bottom=0;right=0;editable=1;overflow=hidden;html=1;whiteSpace=wrap;fontSize=16;" parent="tsxcBONfimj9_CM8lJqI-27" vertex="1">
          <mxGeometry width="60" height="30" as="geometry">
            <mxRectangle width="60" height="30" as="alternateBounds" />
          </mxGeometry>
        </mxCell>
        <mxCell id="tsxcBONfimj9_CM8lJqI-29" value="나이" style="shape=partialRectangle;connectable=0;fillColor=none;top=0;left=0;bottom=0;right=0;align=left;spacingLeft=6;overflow=hidden;html=1;whiteSpace=wrap;fontSize=16;" parent="tsxcBONfimj9_CM8lJqI-27" vertex="1">
          <mxGeometry x="60" width="120" height="30" as="geometry">
            <mxRectangle width="120" height="30" as="alternateBounds" />
          </mxGeometry>
        </mxCell>
        <mxCell id="tsxcBONfimj9_CM8lJqI-30" value="" style="shape=tableRow;horizontal=0;startSize=0;swimlaneHead=0;swimlaneBody=0;fillColor=none;collapsible=0;dropTarget=0;points=[[0,0.5],[1,0.5]];portConstraint=eastwest;top=0;left=0;right=0;bottom=0;html=1;fontSize=16;" parent="tsxcBONfimj9_CM8lJqI-14" vertex="1">
          <mxGeometry y="150" width="180" height="30" as="geometry" />
        </mxCell>
        <mxCell id="tsxcBONfimj9_CM8lJqI-31" value="" style="shape=partialRectangle;connectable=0;fillColor=none;top=0;left=0;bottom=0;right=0;editable=1;overflow=hidden;html=1;whiteSpace=wrap;fontSize=16;" parent="tsxcBONfimj9_CM8lJqI-30" vertex="1">
          <mxGeometry width="60" height="30" as="geometry">
            <mxRectangle width="60" height="30" as="alternateBounds" />
          </mxGeometry>
        </mxCell>
        <mxCell id="tsxcBONfimj9_CM8lJqI-32" value="직업" style="shape=partialRectangle;connectable=0;fillColor=none;top=0;left=0;bottom=0;right=0;align=left;spacingLeft=6;overflow=hidden;html=1;whiteSpace=wrap;fontSize=16;" parent="tsxcBONfimj9_CM8lJqI-30" vertex="1">
          <mxGeometry x="60" width="120" height="30" as="geometry">
            <mxRectangle width="120" height="30" as="alternateBounds" />
          </mxGeometry>
        </mxCell>
        <mxCell id="tsxcBONfimj9_CM8lJqI-33" value="" style="shape=tableRow;horizontal=0;startSize=0;swimlaneHead=0;swimlaneBody=0;fillColor=none;collapsible=0;dropTarget=0;points=[[0,0.5],[1,0.5]];portConstraint=eastwest;top=0;left=0;right=0;bottom=0;html=1;fontSize=16;" parent="tsxcBONfimj9_CM8lJqI-14" vertex="1">
          <mxGeometry y="180" width="180" height="30" as="geometry" />
        </mxCell>
        <mxCell id="tsxcBONfimj9_CM8lJqI-34" value="" style="shape=partialRectangle;connectable=0;fillColor=none;top=0;left=0;bottom=0;right=0;editable=1;overflow=hidden;html=1;whiteSpace=wrap;fontSize=16;" parent="tsxcBONfimj9_CM8lJqI-33" vertex="1">
          <mxGeometry width="60" height="30" as="geometry">
            <mxRectangle width="60" height="30" as="alternateBounds" />
          </mxGeometry>
        </mxCell>
        <mxCell id="tsxcBONfimj9_CM8lJqI-35" value="등급" style="shape=partialRectangle;connectable=0;fillColor=none;top=0;left=0;bottom=0;right=0;align=left;spacingLeft=6;overflow=hidden;html=1;whiteSpace=wrap;fontSize=16;" parent="tsxcBONfimj9_CM8lJqI-33" vertex="1">
          <mxGeometry x="60" width="120" height="30" as="geometry">
            <mxRectangle width="120" height="30" as="alternateBounds" />
          </mxGeometry>
        </mxCell>
        <mxCell id="tsxcBONfimj9_CM8lJqI-36" value="" style="shape=tableRow;horizontal=0;startSize=0;swimlaneHead=0;swimlaneBody=0;fillColor=none;collapsible=0;dropTarget=0;points=[[0,0.5],[1,0.5]];portConstraint=eastwest;top=0;left=0;right=0;bottom=0;html=1;fontSize=16;" parent="tsxcBONfimj9_CM8lJqI-14" vertex="1">
          <mxGeometry y="210" width="180" height="30" as="geometry" />
        </mxCell>
        <mxCell id="tsxcBONfimj9_CM8lJqI-37" value="" style="shape=partialRectangle;connectable=0;fillColor=none;top=0;left=0;bottom=0;right=0;editable=1;overflow=hidden;html=1;whiteSpace=wrap;fontSize=16;" parent="tsxcBONfimj9_CM8lJqI-36" vertex="1">
          <mxGeometry width="60" height="30" as="geometry">
            <mxRectangle width="60" height="30" as="alternateBounds" />
          </mxGeometry>
        </mxCell>
        <mxCell id="tsxcBONfimj9_CM8lJqI-38" value="적립금" style="shape=partialRectangle;connectable=0;fillColor=none;top=0;left=0;bottom=0;right=0;align=left;spacingLeft=6;overflow=hidden;html=1;whiteSpace=wrap;fontSize=16;" parent="tsxcBONfimj9_CM8lJqI-36" vertex="1">
          <mxGeometry x="60" width="120" height="30" as="geometry">
            <mxRectangle width="120" height="30" as="alternateBounds" />
          </mxGeometry>
        </mxCell>
        <mxCell id="tsxcBONfimj9_CM8lJqI-39" value="게시글" style="shape=table;startSize=30;container=1;collapsible=1;childLayout=tableLayout;fixedRows=1;rowLines=0;fontStyle=1;align=center;resizeLast=1;html=1;whiteSpace=wrap;fontSize=16;" parent="1" vertex="1">
          <mxGeometry x="320" y="-160" width="180" height="180" as="geometry" />
        </mxCell>
        <mxCell id="tsxcBONfimj9_CM8lJqI-40" value="" style="shape=tableRow;horizontal=0;startSize=0;swimlaneHead=0;swimlaneBody=0;fillColor=none;collapsible=0;dropTarget=0;points=[[0,0.5],[1,0.5]];portConstraint=eastwest;top=0;left=0;right=0;bottom=0;html=1;fontSize=16;" parent="tsxcBONfimj9_CM8lJqI-39" vertex="1">
          <mxGeometry y="30" width="180" height="30" as="geometry" />
        </mxCell>
        <mxCell id="tsxcBONfimj9_CM8lJqI-41" value="PK" style="shape=partialRectangle;connectable=0;fillColor=none;top=0;left=0;bottom=0;right=0;fontStyle=1;overflow=hidden;html=1;whiteSpace=wrap;fontSize=16;" parent="tsxcBONfimj9_CM8lJqI-40" vertex="1">
          <mxGeometry width="60" height="30" as="geometry">
            <mxRectangle width="60" height="30" as="alternateBounds" />
          </mxGeometry>
        </mxCell>
        <mxCell id="tsxcBONfimj9_CM8lJqI-42" value="글번호" style="shape=partialRectangle;connectable=0;fillColor=none;top=0;left=0;bottom=0;right=0;align=left;spacingLeft=6;fontStyle=5;overflow=hidden;html=1;whiteSpace=wrap;fontSize=16;" parent="tsxcBONfimj9_CM8lJqI-40" vertex="1">
          <mxGeometry x="60" width="120" height="30" as="geometry">
            <mxRectangle width="120" height="30" as="alternateBounds" />
          </mxGeometry>
        </mxCell>
        <mxCell id="tsxcBONfimj9_CM8lJqI-43" value="" style="shape=tableRow;horizontal=0;startSize=0;swimlaneHead=0;swimlaneBody=0;fillColor=none;collapsible=0;dropTarget=0;points=[[0,0.5],[1,0.5]];portConstraint=eastwest;top=0;left=0;right=0;bottom=1;html=1;fontSize=16;" parent="tsxcBONfimj9_CM8lJqI-39" vertex="1">
          <mxGeometry y="60" width="180" height="30" as="geometry" />
        </mxCell>
        <mxCell id="tsxcBONfimj9_CM8lJqI-44" value="FK" style="shape=partialRectangle;connectable=0;fillColor=none;top=0;left=0;bottom=0;right=0;fontStyle=1;overflow=hidden;html=1;whiteSpace=wrap;fontSize=16;" parent="tsxcBONfimj9_CM8lJqI-43" vertex="1">
          <mxGeometry width="60" height="30" as="geometry">
            <mxRectangle width="60" height="30" as="alternateBounds" />
          </mxGeometry>
        </mxCell>
        <mxCell id="tsxcBONfimj9_CM8lJqI-45" value="회원아이디" style="shape=partialRectangle;connectable=0;fillColor=none;top=0;left=0;bottom=0;right=0;align=left;spacingLeft=6;fontStyle=5;overflow=hidden;html=1;whiteSpace=wrap;fontSize=16;" parent="tsxcBONfimj9_CM8lJqI-43" vertex="1">
          <mxGeometry x="60" width="120" height="30" as="geometry">
            <mxRectangle width="120" height="30" as="alternateBounds" />
          </mxGeometry>
        </mxCell>
        <mxCell id="tsxcBONfimj9_CM8lJqI-46" value="" style="shape=tableRow;horizontal=0;startSize=0;swimlaneHead=0;swimlaneBody=0;fillColor=none;collapsible=0;dropTarget=0;points=[[0,0.5],[1,0.5]];portConstraint=eastwest;top=0;left=0;right=0;bottom=0;html=1;fontSize=16;" parent="tsxcBONfimj9_CM8lJqI-39" vertex="1">
          <mxGeometry y="90" width="180" height="30" as="geometry" />
        </mxCell>
        <mxCell id="tsxcBONfimj9_CM8lJqI-47" value="" style="shape=partialRectangle;connectable=0;fillColor=none;top=0;left=0;bottom=0;right=0;editable=1;overflow=hidden;html=1;whiteSpace=wrap;fontSize=16;" parent="tsxcBONfimj9_CM8lJqI-46" vertex="1">
          <mxGeometry width="60" height="30" as="geometry">
            <mxRectangle width="60" height="30" as="alternateBounds" />
          </mxGeometry>
        </mxCell>
        <mxCell id="tsxcBONfimj9_CM8lJqI-48" value="제목" style="shape=partialRectangle;connectable=0;fillColor=none;top=0;left=0;bottom=0;right=0;align=left;spacingLeft=6;overflow=hidden;html=1;whiteSpace=wrap;fontSize=16;" parent="tsxcBONfimj9_CM8lJqI-46" vertex="1">
          <mxGeometry x="60" width="120" height="30" as="geometry">
            <mxRectangle width="120" height="30" as="alternateBounds" />
          </mxGeometry>
        </mxCell>
        <mxCell id="tsxcBONfimj9_CM8lJqI-49" value="" style="shape=tableRow;horizontal=0;startSize=0;swimlaneHead=0;swimlaneBody=0;fillColor=none;collapsible=0;dropTarget=0;points=[[0,0.5],[1,0.5]];portConstraint=eastwest;top=0;left=0;right=0;bottom=0;html=1;fontSize=16;" parent="tsxcBONfimj9_CM8lJqI-39" vertex="1">
          <mxGeometry y="120" width="180" height="30" as="geometry" />
        </mxCell>
        <mxCell id="tsxcBONfimj9_CM8lJqI-50" value="" style="shape=partialRectangle;connectable=0;fillColor=none;top=0;left=0;bottom=0;right=0;editable=1;overflow=hidden;html=1;whiteSpace=wrap;fontSize=16;" parent="tsxcBONfimj9_CM8lJqI-49" vertex="1">
          <mxGeometry width="60" height="30" as="geometry">
            <mxRectangle width="60" height="30" as="alternateBounds" />
          </mxGeometry>
        </mxCell>
        <mxCell id="tsxcBONfimj9_CM8lJqI-51" value="내용" style="shape=partialRectangle;connectable=0;fillColor=none;top=0;left=0;bottom=0;right=0;align=left;spacingLeft=6;overflow=hidden;html=1;whiteSpace=wrap;fontSize=16;" parent="tsxcBONfimj9_CM8lJqI-49" vertex="1">
          <mxGeometry x="60" width="120" height="30" as="geometry">
            <mxRectangle width="120" height="30" as="alternateBounds" />
          </mxGeometry>
        </mxCell>
        <mxCell id="tsxcBONfimj9_CM8lJqI-52" value="" style="shape=tableRow;horizontal=0;startSize=0;swimlaneHead=0;swimlaneBody=0;fillColor=none;collapsible=0;dropTarget=0;points=[[0,0.5],[1,0.5]];portConstraint=eastwest;top=0;left=0;right=0;bottom=0;html=1;fontSize=16;" parent="tsxcBONfimj9_CM8lJqI-39" vertex="1">
          <mxGeometry y="150" width="180" height="30" as="geometry" />
        </mxCell>
        <mxCell id="tsxcBONfimj9_CM8lJqI-53" value="" style="shape=partialRectangle;connectable=0;fillColor=none;top=0;left=0;bottom=0;right=0;editable=1;overflow=hidden;html=1;whiteSpace=wrap;fontSize=16;" parent="tsxcBONfimj9_CM8lJqI-52" vertex="1">
          <mxGeometry width="60" height="30" as="geometry">
            <mxRectangle width="60" height="30" as="alternateBounds" />
          </mxGeometry>
        </mxCell>
        <mxCell id="tsxcBONfimj9_CM8lJqI-54" value="작성일" style="shape=partialRectangle;connectable=0;fillColor=none;top=0;left=0;bottom=0;right=0;align=left;spacingLeft=6;overflow=hidden;html=1;whiteSpace=wrap;fontSize=16;" parent="tsxcBONfimj9_CM8lJqI-52" vertex="1">
          <mxGeometry x="60" width="120" height="30" as="geometry">
            <mxRectangle width="120" height="30" as="alternateBounds" />
          </mxGeometry>
        </mxCell>
        <mxCell id="tsxcBONfimj9_CM8lJqI-56" value="" style="edgeStyle=entityRelationEdgeStyle;fontSize=12;html=1;endArrow=ERoneToMany;startArrow=ERmandOne;rounded=0;startSize=8;endSize=8;curved=1;exitX=1;exitY=0.5;exitDx=0;exitDy=0;entryX=0;entryY=0.5;entryDx=0;entryDy=0;" parent="1" source="tsxcBONfimj9_CM8lJqI-24" target="tsxcBONfimj9_CM8lJqI-46" edge="1">
          <mxGeometry width="100" height="100" relative="1" as="geometry">
            <mxPoint x="150" y="250" as="sourcePoint" />
            <mxPoint x="250" y="150" as="targetPoint" />
          </mxGeometry>
        </mxCell>
        <mxCell id="tsxcBONfimj9_CM8lJqI-57" value="1" style="text;strokeColor=none;fillColor=none;html=1;align=center;verticalAlign=middle;whiteSpace=wrap;rounded=0;fontSize=16;" parent="1" vertex="1">
          <mxGeometry x="103" y="-75" width="10" height="10" as="geometry" />
        </mxCell>
        <mxCell id="tsxcBONfimj9_CM8lJqI-58" value="N" style="text;strokeColor=none;fillColor=none;html=1;align=center;verticalAlign=middle;whiteSpace=wrap;rounded=0;fontSize=16;" parent="1" vertex="1">
          <mxGeometry x="306" y="-75" width="10" height="10" as="geometry" />
        </mxCell>
        <mxCell id="tsxcBONfimj9_CM8lJqI-59" value="상품" style="shape=table;startSize=30;container=1;collapsible=1;childLayout=tableLayout;fixedRows=1;rowLines=0;fontStyle=1;align=center;resizeLast=1;html=1;whiteSpace=wrap;fontSize=16;" parent="1" vertex="1">
          <mxGeometry x="-80" y="480" width="180" height="240" as="geometry" />
        </mxCell>
        <mxCell id="tsxcBONfimj9_CM8lJqI-60" value="" style="shape=tableRow;horizontal=0;startSize=0;swimlaneHead=0;swimlaneBody=0;fillColor=none;collapsible=0;dropTarget=0;points=[[0,0.5],[1,0.5]];portConstraint=eastwest;top=0;left=0;right=0;bottom=0;html=1;fontSize=16;" parent="tsxcBONfimj9_CM8lJqI-59" vertex="1">
          <mxGeometry y="30" width="180" height="30" as="geometry" />
        </mxCell>
        <mxCell id="tsxcBONfimj9_CM8lJqI-61" value="PK" style="shape=partialRectangle;connectable=0;fillColor=none;top=0;left=0;bottom=0;right=0;fontStyle=1;overflow=hidden;html=1;whiteSpace=wrap;fontSize=16;" parent="tsxcBONfimj9_CM8lJqI-60" vertex="1">
          <mxGeometry width="60" height="30" as="geometry">
            <mxRectangle width="60" height="30" as="alternateBounds" />
          </mxGeometry>
        </mxCell>
        <mxCell id="tsxcBONfimj9_CM8lJqI-62" value="상품번호" style="shape=partialRectangle;connectable=0;fillColor=none;top=0;left=0;bottom=0;right=0;align=left;spacingLeft=6;fontStyle=5;overflow=hidden;html=1;whiteSpace=wrap;fontSize=16;" parent="tsxcBONfimj9_CM8lJqI-60" vertex="1">
          <mxGeometry x="60" width="120" height="30" as="geometry">
            <mxRectangle width="120" height="30" as="alternateBounds" />
          </mxGeometry>
        </mxCell>
        <mxCell id="tsxcBONfimj9_CM8lJqI-81" value="" style="shape=tableRow;horizontal=0;startSize=0;swimlaneHead=0;swimlaneBody=0;fillColor=none;collapsible=0;dropTarget=0;points=[[0,0.5],[1,0.5]];portConstraint=eastwest;top=0;left=0;right=0;bottom=0;html=1;fontSize=16;" parent="tsxcBONfimj9_CM8lJqI-59" vertex="1">
          <mxGeometry y="60" width="180" height="30" as="geometry" />
        </mxCell>
        <mxCell id="tsxcBONfimj9_CM8lJqI-82" value="FK" style="shape=partialRectangle;connectable=0;fillColor=none;top=0;left=0;bottom=0;right=0;fontStyle=1;overflow=hidden;html=1;whiteSpace=wrap;fontSize=16;" parent="tsxcBONfimj9_CM8lJqI-81" vertex="1">
          <mxGeometry width="60" height="30" as="geometry">
            <mxRectangle width="60" height="30" as="alternateBounds" />
          </mxGeometry>
        </mxCell>
        <mxCell id="tsxcBONfimj9_CM8lJqI-83" value="업체코드" style="shape=partialRectangle;connectable=0;fillColor=none;top=0;left=0;bottom=0;right=0;align=left;spacingLeft=6;fontStyle=5;overflow=hidden;html=1;whiteSpace=wrap;fontSize=16;" parent="tsxcBONfimj9_CM8lJqI-81" vertex="1">
          <mxGeometry x="60" width="120" height="30" as="geometry">
            <mxRectangle width="120" height="30" as="alternateBounds" />
          </mxGeometry>
        </mxCell>
        <mxCell id="tsxcBONfimj9_CM8lJqI-63" value="" style="shape=tableRow;horizontal=0;startSize=0;swimlaneHead=0;swimlaneBody=0;fillColor=none;collapsible=0;dropTarget=0;points=[[0,0.5],[1,0.5]];portConstraint=eastwest;top=0;left=0;right=0;bottom=0;html=1;fontSize=16;" parent="tsxcBONfimj9_CM8lJqI-59" vertex="1">
          <mxGeometry y="90" width="180" height="30" as="geometry" />
        </mxCell>
        <mxCell id="tsxcBONfimj9_CM8lJqI-64" value="" style="shape=partialRectangle;connectable=0;fillColor=none;top=0;left=0;bottom=0;right=0;editable=1;overflow=hidden;html=1;whiteSpace=wrap;fontSize=16;" parent="tsxcBONfimj9_CM8lJqI-63" vertex="1">
          <mxGeometry width="60" height="30" as="geometry">
            <mxRectangle width="60" height="30" as="alternateBounds" />
          </mxGeometry>
        </mxCell>
        <mxCell id="tsxcBONfimj9_CM8lJqI-65" value="상품명" style="shape=partialRectangle;connectable=0;fillColor=none;top=0;left=0;bottom=0;right=0;align=left;spacingLeft=6;overflow=hidden;html=1;whiteSpace=wrap;fontSize=16;" parent="tsxcBONfimj9_CM8lJqI-63" vertex="1">
          <mxGeometry x="60" width="120" height="30" as="geometry">
            <mxRectangle width="120" height="30" as="alternateBounds" />
          </mxGeometry>
        </mxCell>
        <mxCell id="tsxcBONfimj9_CM8lJqI-66" value="" style="shape=tableRow;horizontal=0;startSize=0;swimlaneHead=0;swimlaneBody=0;fillColor=none;collapsible=0;dropTarget=0;points=[[0,0.5],[1,0.5]];portConstraint=eastwest;top=0;left=0;right=0;bottom=0;html=1;fontSize=16;" parent="tsxcBONfimj9_CM8lJqI-59" vertex="1">
          <mxGeometry y="120" width="180" height="30" as="geometry" />
        </mxCell>
        <mxCell id="tsxcBONfimj9_CM8lJqI-67" value="" style="shape=partialRectangle;connectable=0;fillColor=none;top=0;left=0;bottom=0;right=0;editable=1;overflow=hidden;html=1;whiteSpace=wrap;fontSize=16;" parent="tsxcBONfimj9_CM8lJqI-66" vertex="1">
          <mxGeometry width="60" height="30" as="geometry">
            <mxRectangle width="60" height="30" as="alternateBounds" />
          </mxGeometry>
        </mxCell>
        <mxCell id="tsxcBONfimj9_CM8lJqI-68" value="재고량" style="shape=partialRectangle;connectable=0;fillColor=none;top=0;left=0;bottom=0;right=0;align=left;spacingLeft=6;overflow=hidden;html=1;whiteSpace=wrap;fontSize=16;" parent="tsxcBONfimj9_CM8lJqI-66" vertex="1">
          <mxGeometry x="60" width="120" height="30" as="geometry">
            <mxRectangle width="120" height="30" as="alternateBounds" />
          </mxGeometry>
        </mxCell>
        <mxCell id="tsxcBONfimj9_CM8lJqI-69" value="" style="shape=tableRow;horizontal=0;startSize=0;swimlaneHead=0;swimlaneBody=0;fillColor=none;collapsible=0;dropTarget=0;points=[[0,0.5],[1,0.5]];portConstraint=eastwest;top=0;left=0;right=0;bottom=0;html=1;fontSize=16;" parent="tsxcBONfimj9_CM8lJqI-59" vertex="1">
          <mxGeometry y="150" width="180" height="30" as="geometry" />
        </mxCell>
        <mxCell id="tsxcBONfimj9_CM8lJqI-70" value="" style="shape=partialRectangle;connectable=0;fillColor=none;top=0;left=0;bottom=0;right=0;editable=1;overflow=hidden;html=1;whiteSpace=wrap;fontSize=16;" parent="tsxcBONfimj9_CM8lJqI-69" vertex="1">
          <mxGeometry width="60" height="30" as="geometry">
            <mxRectangle width="60" height="30" as="alternateBounds" />
          </mxGeometry>
        </mxCell>
        <mxCell id="tsxcBONfimj9_CM8lJqI-71" value="단가" style="shape=partialRectangle;connectable=0;fillColor=none;top=0;left=0;bottom=0;right=0;align=left;spacingLeft=6;overflow=hidden;html=1;whiteSpace=wrap;fontSize=16;" parent="tsxcBONfimj9_CM8lJqI-69" vertex="1">
          <mxGeometry x="60" width="120" height="30" as="geometry">
            <mxRectangle width="120" height="30" as="alternateBounds" />
          </mxGeometry>
        </mxCell>
        <mxCell id="oEdFrWkgh3a78aiElS6C-1" value="" style="shape=tableRow;horizontal=0;startSize=0;swimlaneHead=0;swimlaneBody=0;fillColor=none;collapsible=0;dropTarget=0;points=[[0,0.5],[1,0.5]];portConstraint=eastwest;top=0;left=0;right=0;bottom=0;html=1;fontSize=16;" vertex="1" parent="tsxcBONfimj9_CM8lJqI-59">
          <mxGeometry y="180" width="180" height="30" as="geometry" />
        </mxCell>
        <mxCell id="oEdFrWkgh3a78aiElS6C-2" value="" style="shape=partialRectangle;connectable=0;fillColor=none;top=0;left=0;bottom=0;right=0;editable=1;overflow=hidden;html=1;whiteSpace=wrap;fontSize=16;" vertex="1" parent="oEdFrWkgh3a78aiElS6C-1">
          <mxGeometry width="60" height="30" as="geometry">
            <mxRectangle width="60" height="30" as="alternateBounds" />
          </mxGeometry>
        </mxCell>
        <mxCell id="oEdFrWkgh3a78aiElS6C-3" value="공급일자" style="shape=partialRectangle;connectable=0;fillColor=none;top=0;left=0;bottom=0;right=0;align=left;spacingLeft=6;overflow=hidden;html=1;whiteSpace=wrap;fontSize=16;" vertex="1" parent="oEdFrWkgh3a78aiElS6C-1">
          <mxGeometry x="60" width="120" height="30" as="geometry">
            <mxRectangle width="120" height="30" as="alternateBounds" />
          </mxGeometry>
        </mxCell>
        <mxCell id="oEdFrWkgh3a78aiElS6C-4" value="" style="shape=tableRow;horizontal=0;startSize=0;swimlaneHead=0;swimlaneBody=0;fillColor=none;collapsible=0;dropTarget=0;points=[[0,0.5],[1,0.5]];portConstraint=eastwest;top=0;left=0;right=0;bottom=0;html=1;fontSize=16;" vertex="1" parent="tsxcBONfimj9_CM8lJqI-59">
          <mxGeometry y="210" width="180" height="30" as="geometry" />
        </mxCell>
        <mxCell id="oEdFrWkgh3a78aiElS6C-5" value="" style="shape=partialRectangle;connectable=0;fillColor=none;top=0;left=0;bottom=0;right=0;editable=1;overflow=hidden;html=1;whiteSpace=wrap;fontSize=16;" vertex="1" parent="oEdFrWkgh3a78aiElS6C-4">
          <mxGeometry width="60" height="30" as="geometry">
            <mxRectangle width="60" height="30" as="alternateBounds" />
          </mxGeometry>
        </mxCell>
        <mxCell id="oEdFrWkgh3a78aiElS6C-6" value="공급량" style="shape=partialRectangle;connectable=0;fillColor=none;top=0;left=0;bottom=0;right=0;align=left;spacingLeft=6;overflow=hidden;html=1;whiteSpace=wrap;fontSize=16;" vertex="1" parent="oEdFrWkgh3a78aiElS6C-4">
          <mxGeometry x="60" width="120" height="30" as="geometry">
            <mxRectangle width="120" height="30" as="alternateBounds" />
          </mxGeometry>
        </mxCell>
        <mxCell id="tsxcBONfimj9_CM8lJqI-87" value="제조업체" style="shape=table;startSize=30;container=1;collapsible=1;childLayout=tableLayout;fixedRows=1;rowLines=0;fontStyle=1;align=center;resizeLast=1;html=1;whiteSpace=wrap;fontSize=16;" parent="1" vertex="1">
          <mxGeometry x="320" y="390" width="180" height="180" as="geometry" />
        </mxCell>
        <mxCell id="tsxcBONfimj9_CM8lJqI-88" value="" style="shape=tableRow;horizontal=0;startSize=0;swimlaneHead=0;swimlaneBody=0;fillColor=none;collapsible=0;dropTarget=0;points=[[0,0.5],[1,0.5]];portConstraint=eastwest;top=0;left=0;right=0;bottom=0;html=1;fontSize=16;" parent="tsxcBONfimj9_CM8lJqI-87" vertex="1">
          <mxGeometry y="30" width="180" height="30" as="geometry" />
        </mxCell>
        <mxCell id="tsxcBONfimj9_CM8lJqI-89" value="PK" style="shape=partialRectangle;connectable=0;fillColor=none;top=0;left=0;bottom=0;right=0;fontStyle=1;overflow=hidden;html=1;whiteSpace=wrap;fontSize=16;" parent="tsxcBONfimj9_CM8lJqI-88" vertex="1">
          <mxGeometry width="60" height="30" as="geometry">
            <mxRectangle width="60" height="30" as="alternateBounds" />
          </mxGeometry>
        </mxCell>
        <mxCell id="tsxcBONfimj9_CM8lJqI-90" value="제조업체" style="shape=partialRectangle;connectable=0;fillColor=none;top=0;left=0;bottom=0;right=0;align=left;spacingLeft=6;fontStyle=5;overflow=hidden;html=1;whiteSpace=wrap;fontSize=16;" parent="tsxcBONfimj9_CM8lJqI-88" vertex="1">
          <mxGeometry x="60" width="120" height="30" as="geometry">
            <mxRectangle width="120" height="30" as="alternateBounds" />
          </mxGeometry>
        </mxCell>
        <mxCell id="tsxcBONfimj9_CM8lJqI-94" value="" style="shape=tableRow;horizontal=0;startSize=0;swimlaneHead=0;swimlaneBody=0;fillColor=none;collapsible=0;dropTarget=0;points=[[0,0.5],[1,0.5]];portConstraint=eastwest;top=0;left=0;right=0;bottom=0;html=1;fontSize=16;" parent="tsxcBONfimj9_CM8lJqI-87" vertex="1">
          <mxGeometry y="60" width="180" height="30" as="geometry" />
        </mxCell>
        <mxCell id="tsxcBONfimj9_CM8lJqI-95" value="" style="shape=partialRectangle;connectable=0;fillColor=none;top=0;left=0;bottom=0;right=0;editable=1;overflow=hidden;html=1;whiteSpace=wrap;fontSize=16;" parent="tsxcBONfimj9_CM8lJqI-94" vertex="1">
          <mxGeometry width="60" height="30" as="geometry">
            <mxRectangle width="60" height="30" as="alternateBounds" />
          </mxGeometry>
        </mxCell>
        <mxCell id="tsxcBONfimj9_CM8lJqI-96" value="업체명" style="shape=partialRectangle;connectable=0;fillColor=none;top=0;left=0;bottom=0;right=0;align=left;spacingLeft=6;overflow=hidden;html=1;whiteSpace=wrap;fontSize=16;" parent="tsxcBONfimj9_CM8lJqI-94" vertex="1">
          <mxGeometry x="60" width="120" height="30" as="geometry">
            <mxRectangle width="120" height="30" as="alternateBounds" />
          </mxGeometry>
        </mxCell>
        <mxCell id="tsxcBONfimj9_CM8lJqI-97" value="" style="shape=tableRow;horizontal=0;startSize=0;swimlaneHead=0;swimlaneBody=0;fillColor=none;collapsible=0;dropTarget=0;points=[[0,0.5],[1,0.5]];portConstraint=eastwest;top=0;left=0;right=0;bottom=0;html=1;fontSize=16;" parent="tsxcBONfimj9_CM8lJqI-87" vertex="1">
          <mxGeometry y="90" width="180" height="30" as="geometry" />
        </mxCell>
        <mxCell id="tsxcBONfimj9_CM8lJqI-98" value="" style="shape=partialRectangle;connectable=0;fillColor=none;top=0;left=0;bottom=0;right=0;editable=1;overflow=hidden;html=1;whiteSpace=wrap;fontSize=16;" parent="tsxcBONfimj9_CM8lJqI-97" vertex="1">
          <mxGeometry width="60" height="30" as="geometry">
            <mxRectangle width="60" height="30" as="alternateBounds" />
          </mxGeometry>
        </mxCell>
        <mxCell id="tsxcBONfimj9_CM8lJqI-99" value="전화번호" style="shape=partialRectangle;connectable=0;fillColor=none;top=0;left=0;bottom=0;right=0;align=left;spacingLeft=6;overflow=hidden;html=1;whiteSpace=wrap;fontSize=16;" parent="tsxcBONfimj9_CM8lJqI-97" vertex="1">
          <mxGeometry x="60" width="120" height="30" as="geometry">
            <mxRectangle width="120" height="30" as="alternateBounds" />
          </mxGeometry>
        </mxCell>
        <mxCell id="tsxcBONfimj9_CM8lJqI-100" value="" style="shape=tableRow;horizontal=0;startSize=0;swimlaneHead=0;swimlaneBody=0;fillColor=none;collapsible=0;dropTarget=0;points=[[0,0.5],[1,0.5]];portConstraint=eastwest;top=0;left=0;right=0;bottom=0;html=1;fontSize=16;" parent="tsxcBONfimj9_CM8lJqI-87" vertex="1">
          <mxGeometry y="120" width="180" height="30" as="geometry" />
        </mxCell>
        <mxCell id="tsxcBONfimj9_CM8lJqI-101" value="" style="shape=partialRectangle;connectable=0;fillColor=none;top=0;left=0;bottom=0;right=0;editable=1;overflow=hidden;html=1;whiteSpace=wrap;fontSize=16;" parent="tsxcBONfimj9_CM8lJqI-100" vertex="1">
          <mxGeometry width="60" height="30" as="geometry">
            <mxRectangle width="60" height="30" as="alternateBounds" />
          </mxGeometry>
        </mxCell>
        <mxCell id="tsxcBONfimj9_CM8lJqI-102" value="위치" style="shape=partialRectangle;connectable=0;fillColor=none;top=0;left=0;bottom=0;right=0;align=left;spacingLeft=6;overflow=hidden;html=1;whiteSpace=wrap;fontSize=16;" parent="tsxcBONfimj9_CM8lJqI-100" vertex="1">
          <mxGeometry x="60" width="120" height="30" as="geometry">
            <mxRectangle width="120" height="30" as="alternateBounds" />
          </mxGeometry>
        </mxCell>
        <mxCell id="tsxcBONfimj9_CM8lJqI-103" value="" style="shape=tableRow;horizontal=0;startSize=0;swimlaneHead=0;swimlaneBody=0;fillColor=none;collapsible=0;dropTarget=0;points=[[0,0.5],[1,0.5]];portConstraint=eastwest;top=0;left=0;right=0;bottom=0;html=1;fontSize=16;" parent="tsxcBONfimj9_CM8lJqI-87" vertex="1">
          <mxGeometry y="150" width="180" height="30" as="geometry" />
        </mxCell>
        <mxCell id="tsxcBONfimj9_CM8lJqI-104" value="" style="shape=partialRectangle;connectable=0;fillColor=none;top=0;left=0;bottom=0;right=0;editable=1;overflow=hidden;html=1;whiteSpace=wrap;fontSize=16;" parent="tsxcBONfimj9_CM8lJqI-103" vertex="1">
          <mxGeometry width="60" height="30" as="geometry">
            <mxRectangle width="60" height="30" as="alternateBounds" />
          </mxGeometry>
        </mxCell>
        <mxCell id="tsxcBONfimj9_CM8lJqI-105" value="담당자" style="shape=partialRectangle;connectable=0;fillColor=none;top=0;left=0;bottom=0;right=0;align=left;spacingLeft=6;overflow=hidden;html=1;whiteSpace=wrap;fontSize=16;" parent="tsxcBONfimj9_CM8lJqI-103" vertex="1">
          <mxGeometry x="60" width="120" height="30" as="geometry">
            <mxRectangle width="120" height="30" as="alternateBounds" />
          </mxGeometry>
        </mxCell>
        <mxCell id="tsxcBONfimj9_CM8lJqI-106" value="주문" style="shape=table;startSize=30;container=1;collapsible=1;childLayout=tableLayout;fixedRows=1;rowLines=0;fontStyle=1;align=center;resizeLast=1;html=1;whiteSpace=wrap;fontSize=16;" parent="1" vertex="1">
          <mxGeometry x="-80" y="190" width="180" height="210" as="geometry" />
        </mxCell>
        <mxCell id="tsxcBONfimj9_CM8lJqI-107" value="" style="shape=tableRow;horizontal=0;startSize=0;swimlaneHead=0;swimlaneBody=0;fillColor=none;collapsible=0;dropTarget=0;points=[[0,0.5],[1,0.5]];portConstraint=eastwest;top=0;left=0;right=0;bottom=0;html=1;fontSize=16;" parent="tsxcBONfimj9_CM8lJqI-106" vertex="1">
          <mxGeometry y="30" width="180" height="30" as="geometry" />
        </mxCell>
        <mxCell id="tsxcBONfimj9_CM8lJqI-108" value="PK" style="shape=partialRectangle;connectable=0;fillColor=none;top=0;left=0;bottom=0;right=0;fontStyle=1;overflow=hidden;html=1;whiteSpace=wrap;fontSize=16;" parent="tsxcBONfimj9_CM8lJqI-107" vertex="1">
          <mxGeometry width="60" height="30" as="geometry">
            <mxRectangle width="60" height="30" as="alternateBounds" />
          </mxGeometry>
        </mxCell>
        <mxCell id="tsxcBONfimj9_CM8lJqI-109" value="주문번호" style="shape=partialRectangle;connectable=0;fillColor=none;top=0;left=0;bottom=0;right=0;align=left;spacingLeft=6;fontStyle=5;overflow=hidden;html=1;whiteSpace=wrap;fontSize=16;" parent="tsxcBONfimj9_CM8lJqI-107" vertex="1">
          <mxGeometry x="60" width="120" height="30" as="geometry">
            <mxRectangle width="120" height="30" as="alternateBounds" />
          </mxGeometry>
        </mxCell>
        <mxCell id="tsxcBONfimj9_CM8lJqI-128" value="" style="shape=tableRow;horizontal=0;startSize=0;swimlaneHead=0;swimlaneBody=0;fillColor=none;collapsible=0;dropTarget=0;points=[[0,0.5],[1,0.5]];portConstraint=eastwest;top=0;left=0;right=0;bottom=0;html=1;fontSize=16;" parent="tsxcBONfimj9_CM8lJqI-106" vertex="1">
          <mxGeometry y="60" width="180" height="30" as="geometry" />
        </mxCell>
        <mxCell id="tsxcBONfimj9_CM8lJqI-129" value="FK" style="shape=partialRectangle;connectable=0;fillColor=none;top=0;left=0;bottom=0;right=0;fontStyle=1;overflow=hidden;html=1;whiteSpace=wrap;fontSize=16;" parent="tsxcBONfimj9_CM8lJqI-128" vertex="1">
          <mxGeometry width="60" height="30" as="geometry">
            <mxRectangle width="60" height="30" as="alternateBounds" />
          </mxGeometry>
        </mxCell>
        <mxCell id="tsxcBONfimj9_CM8lJqI-130" value="회원아이디" style="shape=partialRectangle;connectable=0;fillColor=none;top=0;left=0;bottom=0;right=0;align=left;spacingLeft=6;fontStyle=5;overflow=hidden;html=1;whiteSpace=wrap;fontSize=16;" parent="tsxcBONfimj9_CM8lJqI-128" vertex="1">
          <mxGeometry x="60" width="120" height="30" as="geometry">
            <mxRectangle width="120" height="30" as="alternateBounds" />
          </mxGeometry>
        </mxCell>
        <mxCell id="tsxcBONfimj9_CM8lJqI-131" value="" style="shape=tableRow;horizontal=0;startSize=0;swimlaneHead=0;swimlaneBody=0;fillColor=none;collapsible=0;dropTarget=0;points=[[0,0.5],[1,0.5]];portConstraint=eastwest;top=0;left=0;right=0;bottom=0;html=1;fontSize=16;" parent="tsxcBONfimj9_CM8lJqI-106" vertex="1">
          <mxGeometry y="90" width="180" height="30" as="geometry" />
        </mxCell>
        <mxCell id="tsxcBONfimj9_CM8lJqI-132" value="FK" style="shape=partialRectangle;connectable=0;fillColor=none;top=0;left=0;bottom=0;right=0;fontStyle=1;overflow=hidden;html=1;whiteSpace=wrap;fontSize=16;" parent="tsxcBONfimj9_CM8lJqI-131" vertex="1">
          <mxGeometry width="60" height="30" as="geometry">
            <mxRectangle width="60" height="30" as="alternateBounds" />
          </mxGeometry>
        </mxCell>
        <mxCell id="tsxcBONfimj9_CM8lJqI-133" value="상품번호" style="shape=partialRectangle;connectable=0;fillColor=none;top=0;left=0;bottom=0;right=0;align=left;spacingLeft=6;fontStyle=5;overflow=hidden;html=1;whiteSpace=wrap;fontSize=16;" parent="tsxcBONfimj9_CM8lJqI-131" vertex="1">
          <mxGeometry x="60" width="120" height="30" as="geometry">
            <mxRectangle width="120" height="30" as="alternateBounds" />
          </mxGeometry>
        </mxCell>
        <mxCell id="tsxcBONfimj9_CM8lJqI-113" value="" style="shape=tableRow;horizontal=0;startSize=0;swimlaneHead=0;swimlaneBody=0;fillColor=none;collapsible=0;dropTarget=0;points=[[0,0.5],[1,0.5]];portConstraint=eastwest;top=0;left=0;right=0;bottom=0;html=1;fontSize=16;" parent="tsxcBONfimj9_CM8lJqI-106" vertex="1">
          <mxGeometry y="120" width="180" height="30" as="geometry" />
        </mxCell>
        <mxCell id="tsxcBONfimj9_CM8lJqI-114" value="" style="shape=partialRectangle;connectable=0;fillColor=none;top=0;left=0;bottom=0;right=0;editable=1;overflow=hidden;html=1;whiteSpace=wrap;fontSize=16;" parent="tsxcBONfimj9_CM8lJqI-113" vertex="1">
          <mxGeometry width="60" height="30" as="geometry">
            <mxRectangle width="60" height="30" as="alternateBounds" />
          </mxGeometry>
        </mxCell>
        <mxCell id="tsxcBONfimj9_CM8lJqI-115" value="주문수량" style="shape=partialRectangle;connectable=0;fillColor=none;top=0;left=0;bottom=0;right=0;align=left;spacingLeft=6;overflow=hidden;html=1;whiteSpace=wrap;fontSize=16;" parent="tsxcBONfimj9_CM8lJqI-113" vertex="1">
          <mxGeometry x="60" width="120" height="30" as="geometry">
            <mxRectangle width="120" height="30" as="alternateBounds" />
          </mxGeometry>
        </mxCell>
        <mxCell id="tsxcBONfimj9_CM8lJqI-116" value="" style="shape=tableRow;horizontal=0;startSize=0;swimlaneHead=0;swimlaneBody=0;fillColor=none;collapsible=0;dropTarget=0;points=[[0,0.5],[1,0.5]];portConstraint=eastwest;top=0;left=0;right=0;bottom=0;html=1;fontSize=16;" parent="tsxcBONfimj9_CM8lJqI-106" vertex="1">
          <mxGeometry y="150" width="180" height="30" as="geometry" />
        </mxCell>
        <mxCell id="tsxcBONfimj9_CM8lJqI-117" value="" style="shape=partialRectangle;connectable=0;fillColor=none;top=0;left=0;bottom=0;right=0;editable=1;overflow=hidden;html=1;whiteSpace=wrap;fontSize=16;" parent="tsxcBONfimj9_CM8lJqI-116" vertex="1">
          <mxGeometry width="60" height="30" as="geometry">
            <mxRectangle width="60" height="30" as="alternateBounds" />
          </mxGeometry>
        </mxCell>
        <mxCell id="tsxcBONfimj9_CM8lJqI-118" value="배송지" style="shape=partialRectangle;connectable=0;fillColor=none;top=0;left=0;bottom=0;right=0;align=left;spacingLeft=6;overflow=hidden;html=1;whiteSpace=wrap;fontSize=16;" parent="tsxcBONfimj9_CM8lJqI-116" vertex="1">
          <mxGeometry x="60" width="120" height="30" as="geometry">
            <mxRectangle width="120" height="30" as="alternateBounds" />
          </mxGeometry>
        </mxCell>
        <mxCell id="tsxcBONfimj9_CM8lJqI-119" value="" style="shape=tableRow;horizontal=0;startSize=0;swimlaneHead=0;swimlaneBody=0;fillColor=none;collapsible=0;dropTarget=0;points=[[0,0.5],[1,0.5]];portConstraint=eastwest;top=0;left=0;right=0;bottom=0;html=1;fontSize=16;" parent="tsxcBONfimj9_CM8lJqI-106" vertex="1">
          <mxGeometry y="180" width="180" height="30" as="geometry" />
        </mxCell>
        <mxCell id="tsxcBONfimj9_CM8lJqI-120" value="" style="shape=partialRectangle;connectable=0;fillColor=none;top=0;left=0;bottom=0;right=0;editable=1;overflow=hidden;html=1;whiteSpace=wrap;fontSize=16;" parent="tsxcBONfimj9_CM8lJqI-119" vertex="1">
          <mxGeometry width="60" height="30" as="geometry">
            <mxRectangle width="60" height="30" as="alternateBounds" />
          </mxGeometry>
        </mxCell>
        <mxCell id="tsxcBONfimj9_CM8lJqI-121" value="주문일자" style="shape=partialRectangle;connectable=0;fillColor=none;top=0;left=0;bottom=0;right=0;align=left;spacingLeft=6;overflow=hidden;html=1;whiteSpace=wrap;fontSize=16;" parent="tsxcBONfimj9_CM8lJqI-119" vertex="1">
          <mxGeometry x="60" width="120" height="30" as="geometry">
            <mxRectangle width="120" height="30" as="alternateBounds" />
          </mxGeometry>
        </mxCell>
        <mxCell id="tsxcBONfimj9_CM8lJqI-134" value="" style="fontSize=12;html=1;endArrow=ERoneToMany;startArrow=ERmandOne;rounded=0;startSize=8;endSize=8;exitX=1;exitY=0.5;exitDx=0;exitDy=0;entryX=1;entryY=0.5;entryDx=0;entryDy=0;edgeStyle=elbowEdgeStyle;" parent="1" source="tsxcBONfimj9_CM8lJqI-33" target="tsxcBONfimj9_CM8lJqI-128" edge="1">
          <mxGeometry width="100" height="100" relative="1" as="geometry">
            <mxPoint x="180" y="330" as="sourcePoint" />
            <mxPoint x="280" y="230" as="targetPoint" />
            <Array as="points">
              <mxPoint x="160" y="150" />
            </Array>
          </mxGeometry>
        </mxCell>
        <mxCell id="tsxcBONfimj9_CM8lJqI-135" value="" style="fontSize=12;html=1;endArrow=ERoneToMany;startArrow=ERmandOne;rounded=0;startSize=8;endSize=8;exitX=1;exitY=0.5;exitDx=0;exitDy=0;entryX=1;entryY=0.5;entryDx=0;entryDy=0;edgeStyle=elbowEdgeStyle;" parent="1" source="tsxcBONfimj9_CM8lJqI-81" target="tsxcBONfimj9_CM8lJqI-116" edge="1">
          <mxGeometry width="100" height="100" relative="1" as="geometry">
            <mxPoint x="110" y="45" as="sourcePoint" />
            <mxPoint x="110" y="305" as="targetPoint" />
            <Array as="points">
              <mxPoint x="160" y="180" />
            </Array>
          </mxGeometry>
        </mxCell>
        <mxCell id="tsxcBONfimj9_CM8lJqI-136" value="" style="edgeStyle=entityRelationEdgeStyle;fontSize=12;html=1;endArrow=ERoneToMany;startArrow=ERmandOne;rounded=0;startSize=8;endSize=8;exitX=0;exitY=0.5;exitDx=0;exitDy=0;entryX=1;entryY=0.5;entryDx=0;entryDy=0;elbow=vertical;" parent="1" source="tsxcBONfimj9_CM8lJqI-100" target="tsxcBONfimj9_CM8lJqI-66" edge="1">
          <mxGeometry width="100" height="100" relative="1" as="geometry">
            <mxPoint x="180" y="330" as="sourcePoint" />
            <mxPoint x="280" y="230" as="targetPoint" />
          </mxGeometry>
        </mxCell>
        <mxCell id="aOB0zF8e9DWWbw2UqWGJ-1" value="N" style="text;strokeColor=none;fillColor=none;html=1;align=center;verticalAlign=middle;whiteSpace=wrap;rounded=0;fontSize=16;" parent="1" vertex="1">
          <mxGeometry x="104" y="594" width="10" height="10" as="geometry" />
        </mxCell>
        <mxCell id="aOB0zF8e9DWWbw2UqWGJ-2" value="1" style="text;strokeColor=none;fillColor=none;html=1;align=center;verticalAlign=middle;whiteSpace=wrap;rounded=0;fontSize=16;" parent="1" vertex="1">
          <mxGeometry x="307" y="505" width="10" height="10" as="geometry" />
        </mxCell>
      </root>
    </mxGraphModel>
  </diagram>
</mxfile>
